<?xml version="1.0" encoding="iso-8859-1"?>
<!-- Generator: Adobe Illustrator 19.0.0, SVG Export Plug-In . SVG Version: 6.00 Build 0)  -->
<svg version="1.1" id="Layer_1" xmlns="http://www.w3.org/2000/svg" xmlns:xlink="http://www.w3.org/1999/xlink" x="0px" y="0px"
	 viewBox="0 0 512 512" style="enable-background:new 0 0 512 512;" xml:space="preserve">
<path style="fill:#FF80AC;" d="M378.224,512c-3.869,0-7.736-1.342-10.866-4.02c-12.908-11.066-24.979-20.85-36.007-29.792
	c-44.026-35.692-75.84-61.481-75.84-103.269c0-41.272,30.619-73.601,69.7-73.601c25.435,0,42.309,13.054,53.011,26.745
	c10.702-13.691,27.576-26.745,53.011-26.745c39.083,0,69.7,32.33,69.7,73.601c0,41.788-31.814,67.576-75.84,103.269
	c-11.028,8.942-23.1,18.726-36.007,29.792C385.96,510.658,382.092,512,378.224,512z"/>
<path style="fill:#F26D99;" d="M389.089,507.979c12.908-11.066,24.979-20.85,36.007-29.792
	c44.026-35.692,75.84-61.481,75.84-103.269c0-41.272-30.619-73.601-69.7-73.601c-25.435,0-42.309,13.054-53.011,26.745V512
	C382.092,512,385.96,510.658,389.089,507.979z"/>
<path style="fill:#E6563A;" d="M194.644,411.664h-50.067v-50.067c0-9.219-7.476-16.689-16.689-16.689s-16.689,7.47-16.689,16.689
	v50.067H61.132c-9.213,0-16.689,7.47-16.689,16.689c0,9.219,7.476,16.689,16.689,16.689h50.067v50.067
	c0,9.219,7.476,16.689,16.689,16.689s16.689-7.47,16.689-16.689v-50.067h50.067c9.214,0,16.689-7.47,16.689-16.689
	C211.333,419.134,203.858,411.664,194.644,411.664z"/>
<g>
	<path style="fill:#57D4D4;" d="M194.644,311.53c-64.42,0-116.824-52.408-116.824-116.824S130.224,77.882,194.644,77.882
		s116.824,52.408,116.824,116.824S259.064,311.53,194.644,311.53z M194.644,111.261c-46.014,0-83.445,37.431-83.445,83.445
		s37.431,83.445,83.445,83.445s83.445-37.431,83.445-83.445S240.658,111.261,194.644,111.261z"/>
	<path style="fill:#57D4D4;" d="M389.35,16.685c-0.001-2.153-0.443-4.195-1.184-6.083c-0.034-0.086-0.044-0.172-0.08-0.258
		c-1.693-4.11-4.973-7.389-9.084-9.081c-0.081-0.034-0.168-0.046-0.25-0.078C376.86,0.442,374.815,0,372.661,0h-66.756
		c-9.214,0-16.689,7.47-16.689,16.689s7.476,16.689,16.689,16.689h26.469l-78.752,78.757c-6.519,6.519-6.519,17.085,0,23.599
		c3.26,3.26,7.53,4.89,11.799,4.89c4.269,0,8.54-1.63,11.799-4.89l78.751-78.756v26.467c0,9.219,7.476,16.689,16.689,16.689
		c9.213,0,16.689-7.47,16.689-16.689V16.689v-0.001v-0.003H389.35z"/>
</g>
<path style="fill:#E6563A;" d="M194.644,311.53v-0.318c-15.218,20.389-39.413,33.696-66.756,33.696
	c-46.014,0-83.445-37.431-83.445-83.445s37.431-83.445,83.445-83.445s83.445,37.431,83.445,83.445
	c0,5.207-0.505,10.292-1.442,15.228c12.897-2.393,24.722-7.776,34.812-15.38c-0.082-64.345-52.447-116.672-116.816-116.672
	c-64.42,0-116.824,52.408-116.824,116.824s52.404,116.824,116.824,116.824c49.531,0,91.759-31.068,108.706-74.675
	C223.554,308.652,209.443,311.53,194.644,311.53z"/>
<g>
</g>
<g>
</g>
<g>
</g>
<g>
</g>
<g>
</g>
<g>
</g>
<g>
</g>
<g>
</g>
<g>
</g>
<g>
</g>
<g>
</g>
<g>
</g>
<g>
</g>
<g>
</g>
<g>
</g>
</svg>
