<?xml version="1.0" encoding="iso-8859-1"?>
<!-- Generator: Adobe Illustrator 19.0.0, SVG Export Plug-In . SVG Version: 6.00 Build 0)  -->
<svg version="1.1" id="Layer_1" xmlns="http://www.w3.org/2000/svg" xmlns:xlink="http://www.w3.org/1999/xlink" x="0px" y="0px"
	 viewBox="0 0 512.001 512.001" style="enable-background:new 0 0 512.001 512.001;" xml:space="preserve">
<rect x="20.246" y="113.742" style="fill:#FFFFFF;" width="471.502" height="394.257"/>
<path style="fill:#CCCCCC;" d="M487.755,117.744V504H24.251V117.744L487.755,117.744 M495.755,109.744H16.251v402.257h479.504
	V109.744z"/>
<rect x="55.027" y="164.516" style="fill:#FFFFFF;" width="401.955" height="308.709"/>
<path style="fill:#CCCCCC;" d="M452.979,168.512v300.712H59.027V168.512H452.979 M460.979,160.512H51.027v316.712h409.952V160.512
	H460.979z"/>
<rect x="16.246" y="41.323" style="fill:#E21B1B;" width="479.503" height="92.42"/>
<g>
	<rect x="103.195" style="fill:#1A1718;" width="24" height="83.15"/>
	<rect x="384.808" style="fill:#1A1718;" width="24" height="83.15"/>
</g>
<path style="fill:#666666;" d="M322.14,421.273l-66.136-49.968l-66.136,49.968l25.264-80.849l-65.88-49.744h81.424l25.328-81.024
	l25.328,81.024h81.416l-65.864,49.744L322.14,421.273z"/>
<g>
</g>
<g>
</g>
<g>
</g>
<g>
</g>
<g>
</g>
<g>
</g>
<g>
</g>
<g>
</g>
<g>
</g>
<g>
</g>
<g>
</g>
<g>
</g>
<g>
</g>
<g>
</g>
<g>
</g>
</svg>
