<?xml version="1.0" encoding="iso-8859-1"?>
<!-- Generator: Adobe Illustrator 19.0.0, SVG Export Plug-In . SVG Version: 6.00 Build 0)  -->
<svg version="1.1" id="Layer_1" xmlns="http://www.w3.org/2000/svg" xmlns:xlink="http://www.w3.org/1999/xlink" x="0px" y="0px"
	 viewBox="0 0 489.906 489.906" style="enable-background:new 0 0 489.906 489.906;" xml:space="preserve">
<g id="XMLID_1358_">
	<g id="XMLID_1417_">
		<g>
			<path style="fill:#F7931E;" d="M327.888,114.822h-82.937V45.929c0-23.216,25.184-45.929,48.4-45.929h66.421v82.937
				C359.772,100.546,345.497,114.822,327.888,114.822z"/>
		</g>
	</g>
	<g id="XMLID_1416_">
		<g>
			<path style="fill:#FBB03B;" d="M162.339,114.822h82.937V45.929c0-23.216-25.184-45.929-48.4-45.929h-66.421v82.937
				C130.455,100.546,144.73,114.822,162.339,114.822z"/>
		</g>
	</g>
	<g id="XMLID_1415_">
		<g>
			<polygon style="fill:#FFFFFF;" points="153.095,107.167 134.045,106.871 134.915,11.482 153.094,11.482 			"/>
		</g>
	</g>
	<g id="XMLID_1414_">
		<g>
			<rect x="68.891" y="191.369" style="fill:#E9483D;" width="352.119" height="290.881"/>
		</g>
	</g>
	<g id="XMLID_1412_">
		<g>
			<polygon style="fill:#F7931E;" points="221.987,114.822 221.987,15.31 237.296,15.31 244.951,114.822 			"/>
		</g>
	</g>
	<g id="XMLID_1410_">
		<g>
			<rect x="68.891" y="191.369" style="fill:#ED6D64;" width="99.512" height="290.881"/>
		</g>
	</g>
	<g id="XMLID_1405_">
		<g>
			<rect x="199.022" y="191.369" style="fill:#F7931E;" width="91.857" height="290.881"/>
		</g>
	</g>
	<g id="XMLID_1404_">
		<g>
			<rect x="45.927" y="114.822" style="fill:#E9483D;" width="398.048" height="76.548"/>
		</g>
	</g>
	<g id="XMLID_1402_">
		<g>
			<rect x="183.713" y="114.822" style="fill:#F7931E;" width="122.476" height="76.548"/>
		</g>
	</g>
	<g id="XMLID_1401_">
		<g>
			<rect x="45.927" y="114.822" style="fill:#ED6D64;" width="107.167" height="76.548"/>
		</g>
	</g>
	<g id="XMLID_1400_">
		<g>
			<rect x="183.713" y="114.822" style="fill:#FBB03B;" width="68.893" height="76.548"/>
		</g>
	</g>
	<g id="XMLID_1399_">
		<g>
			<rect x="199.022" y="199.024" style="fill:#FBB03B;" width="61.238" height="283.226"/>
		</g>
	</g>
	<g id="XMLID_1398_">
		<g>
			<polygon style="fill:#F7931E;" points="237.296,359.774 160.748,359.774 160.748,229.643 199.022,199.024 237.296,229.643 			"/>
		</g>
	</g>
	<g id="XMLID_1359_">
		<g>
			<rect x="68.893" y="191.369" style="fill:#FFFFFF;" width="22.964" height="290.881"/>
		</g>
	</g>
	<g id="XMLID_1360_">
		<g>
			<rect x="45.929" y="114.822" style="fill:#FFFFFF;" width="22.964" height="76.548"/>
		</g>
	</g>
	<path style="fill:#1D1D1B;" d="M451.927,106.871h-96.07c7.571-8.318,12.231-19.331,12.231-31.438V0h-84.019
		c-12.506,0-24.265,4.874-33.105,13.721c-2.276,2.277-4.278,4.753-6.012,7.38c-1.734-2.627-3.736-5.103-6.012-7.38
		C230.099,4.874,218.34,0,205.834,0h-84.019v75.434c0,12.106,4.66,23.119,12.231,31.438H37.979v92.448h23.26v290.586h367.429
		V199.319h23.26L451.927,106.871L451.927,106.871z M168.7,351.824V233.463l30.324-24.258l30.324,24.258v118.361H168.7z
		 M245.248,367.724V225.823l-33.129-26.504h70.812v275.276h-75.957V367.724H245.248z M191.664,183.419v-60.648H298.24v60.648
		H191.664z M261.79,24.542c5.95-5.954,13.859-9.232,22.277-9.232h68.71v60.124c0,17.166-13.816,31.112-30.906,31.438h-69.264
		l-0.001-1.673l0.035-58.366c0-0.166-0.022-0.328-0.024-0.493C252.739,38.108,255.957,30.379,261.79,24.542z M137.124,75.434V15.31
		h68.71c8.417,0,16.326,3.278,22.277,9.232c5.834,5.837,9.052,13.566,9.174,21.798c-0.001,0.165-0.024,0.327-0.024,0.493
		l0.035,58.366l-0.001,1.673H168.03C150.94,106.546,137.124,92.6,137.124,75.434z M53.879,122.772h121.886v60.648H53.879V122.772z
		 M76.548,199.319h109.381L152.8,225.823v141.901h38.274v106.871H76.548V199.319z M413.358,474.596H298.831V199.319h114.526v275.277
		H413.358z M436.026,183.419H314.141v-60.648h121.886L436.026,183.419L436.026,183.419z"/>
	<g id="XMLID_1361_">
		<g>
			<rect x="183.714" y="321.205" style="fill:#1D1D1B;" width="30.619" height="15.9"/>
		</g>
	</g>
</g>
<g>
</g>
<g>
</g>
<g>
</g>
<g>
</g>
<g>
</g>
<g>
</g>
<g>
</g>
<g>
</g>
<g>
</g>
<g>
</g>
<g>
</g>
<g>
</g>
<g>
</g>
<g>
</g>
<g>
</g>
</svg>
