<?xml version="1.0" encoding="iso-8859-1"?>
<!-- Generator: Adobe Illustrator 19.0.0, SVG Export Plug-In . SVG Version: 6.00 Build 0)  -->
<svg version="1.1" id="Layer_1" xmlns="http://www.w3.org/2000/svg" xmlns:xlink="http://www.w3.org/1999/xlink" x="0px" y="0px"
	 viewBox="0 0 512 512" style="enable-background:new 0 0 512 512;" xml:space="preserve">
<polygon style="fill:#919CB0;" points="185.779,64 256,9.387 326.221,64 "/>
<path style="fill:#FFF8EC;" d="M38.4,230.963V64h435.2v166.963L256,400.213L38.4,230.963z M297.506,289.169
	c1.835,0.964,3.891,1.476,5.956,1.476c2.714,0,5.325-0.853,7.535-2.449c3.959-2.876,5.905-7.671,5.086-12.518l-7.927-46.217
	l33.579-32.734c3.516-3.422,4.762-8.448,3.243-13.124c-1.519-4.659-5.478-8.004-10.334-8.713l-46.404-6.741l-20.753-42.052
	c-2.176-4.403-6.579-7.142-11.486-7.142c-4.907,0-9.31,2.731-11.486,7.142l-20.753,42.052l-46.404,6.741
	c-4.855,0.708-8.815,4.053-10.334,8.713c-1.519,4.659-0.273,9.694,3.243,13.116l33.579,32.734l-7.927,46.225
	c-0.828,4.83,1.126,9.634,5.094,12.51c2.202,1.604,4.804,2.449,7.526,2.449c2.065,0,4.122-0.512,5.973-1.476L256,267.349
	L297.506,289.169z"/>
<path style="fill:#FF877F;" d="M12.8,499.2V211.055l235.341,183.049c2.27,1.766,4.992,2.697,7.859,2.697
	c2.867,0,5.589-0.93,7.868-2.697L499.2,211.055V499.2H12.8z"/>
<polygon style="fill:#FEDEA1;" points="256,267.341 197.862,292.804 203.853,229.453 161.067,181.333 223.77,168.149 256,112 
	288.23,168.149 350.933,182.4 308.147,229.453 315.196,293.871 "/>
<g>
	<path style="fill:#573A32;" d="M502.118,184.593L486.4,172.365V76.8c0-14.14-11.46-25.6-25.6-25.6H330.615L271.718,5.393
		C267.093,1.801,261.547,0,256,0c-5.547,0-11.093,1.801-15.718,5.393L181.385,51.2H51.2c-14.14,0-25.6,11.46-25.6,25.6v95.565
		L9.882,184.593C3.644,189.44,0,196.898,0,204.8v281.6C0,500.54,11.46,512,25.6,512h460.8c14.14,0,25.6-11.46,25.6-25.6V204.8
		C512,196.898,508.356,189.44,502.118,184.593z M256,25.6l32.913,25.6h-65.826L256,25.6z M51.2,76.8h409.6v147.908L256,384
		L51.2,224.708V76.8z M486.4,486.4H25.6V237.235l214.682,166.972c4.625,3.593,10.172,5.393,15.718,5.393
		c5.547,0,11.093-1.801,15.718-5.393L486.4,237.235V486.4z"/>
	<path style="fill:#573A32;" d="M291.55,300.501c3.746,1.971,7.834,2.944,11.913,2.944c5.308,0,10.59-1.647,15.053-4.89
		c7.885-5.726,11.827-15.437,10.18-25.037l-6.793-39.586l28.766-28.032c6.98-6.801,9.489-16.973,6.477-26.24
		c-3.012-9.267-11.025-16.026-20.668-17.425l-39.748-5.777l-17.775-36.019c-4.309-8.738-13.21-14.268-22.955-14.268
		c-9.745,0-18.645,5.53-22.955,14.268l-17.775,36.019l-39.748,5.777c-9.643,1.399-17.655,8.158-20.668,17.425
		c-3.012,9.267-0.503,19.439,6.477,26.24l28.766,28.032l-6.793,39.586c-1.647,9.609,2.304,19.311,10.18,25.037
		c4.463,3.243,9.745,4.89,15.053,4.89c4.079,0,8.166-0.973,11.913-2.944L256,281.813L291.55,300.501z M208.538,277.837l9.062-52.855
		l-38.4-37.427l53.069-7.714L256,131.763l23.731,48.085l53.069,7.706l-38.4,37.427l9.062,52.855L256,252.885L208.538,277.837z"/>
</g>
<g>
</g>
<g>
</g>
<g>
</g>
<g>
</g>
<g>
</g>
<g>
</g>
<g>
</g>
<g>
</g>
<g>
</g>
<g>
</g>
<g>
</g>
<g>
</g>
<g>
</g>
<g>
</g>
<g>
</g>
</svg>
